<svg width="24" height="24" viewBox="0 0 24 24" fill="none" xmlns="http://www.w3.org/2000/svg">
<g clip-path="url(#clip0_1_3022)">
<path d="M4.39688 5.37187C4.17656 5.42344 4.31719 5.41406 4.13437 5.4375C3.35156 5.60625 3.93281 5.75625 4.39688 5.37187ZM18.1641 5.68594C18.2203 5.64844 18.4172 5.45625 17.8031 5.26875C17.8406 5.46094 17.6766 5.44219 17.6766 5.55C18.1313 5.9625 18.3188 6.67969 18.9 6.82969C19.0125 6.31406 18.3844 6.06094 18.1641 5.68594V5.68594ZM3.97969 5.22188C4.05 5.63906 4.36406 4.78125 4.36875 4.47656C4.24687 4.54688 4.125 4.61719 3.99844 4.67344C4.29375 4.82344 4.03594 4.98281 3.71719 5.22188C3.07031 6.02813 4.32188 4.59375 3.97969 5.22188V5.22188ZM12 0C5.37188 0 0 5.37188 0 12C0 18.6234 5.37188 24 12 24C18.6281 24 24 18.6234 24 12C24 5.37188 18.6281 0 12 0ZM12.3187 4.02188L12.375 4.04062C12.15 4.33125 13.5469 5.17969 12.5438 5.25C11.6063 5.51719 12.9375 5.00625 12.2109 5.09531C12.5953 4.56094 11.9062 4.55156 12.3187 4.02188V4.02188ZM6.62812 4.79062C6.29062 4.50937 5.23125 5.175 5.60156 5.01562C6.52031 4.65469 5.6625 5.05313 5.87813 5.48438C5.68125 5.89219 5.8125 5.08125 5.325 5.56406C4.97344 5.64375 4.11094 6.44062 4.21875 6.19687C4.19062 6.57656 3.19219 7.02656 3.05625 7.65937C2.72812 8.53594 2.97656 7.62656 2.91563 7.28437C2.44688 6.68906 1.59375 8.29219 1.84688 8.925C2.27344 8.175 2.24063 8.84531 1.93125 9.17813C2.24531 9.75469 1.64531 10.5047 2.24062 10.9312C2.50312 10.9922 3.02813 10.05 2.79844 11.0297C2.95781 10.1813 3.23906 11.2313 3.69375 10.9969C3.72188 11.4422 3.99844 11.2359 4.05937 11.775C4.81875 11.7187 5.5125 13.0031 4.60781 13.2469C4.74375 13.2094 5.01094 13.4484 5.32031 13.2656C5.84531 13.6828 7.22812 13.7344 7.26562 14.7656C6.31406 15.2203 7.03125 16.4672 6.20625 16.9125C5.25937 16.7719 5.88281 18.0797 5.48438 17.9297C5.64375 18.8719 4.52813 17.8078 4.95938 18.3281C5.75156 18.8156 4.6125 18.7172 4.96875 19.0734C4.57031 18.9891 5.21719 19.8141 5.325 20.1188C5.89687 21.0469 4.83281 19.9125 4.51875 19.6031C4.21875 19.0031 3.51094 17.8547 3.31406 16.9125C3.20156 15.5437 2.14219 14.625 1.89844 13.2891C1.65469 12.5438 2.56875 11.3484 2.07656 10.9312C1.65 10.5984 1.82344 9.45938 1.57031 8.85938C2.20312 6.11719 4.21406 3.80625 6.62812 2.4375C6.37969 2.62031 8.04844 1.96406 7.85625 2.12344C7.80469 2.24062 8.83125 1.67812 9.45 1.59375C9.38438 1.60313 7.84219 2.15625 8.26875 2.08125C7.60781 2.40469 8.20312 2.22188 8.53125 2.05781C7.875 2.54063 7.36875 2.40469 6.62344 2.83125C5.87344 3.02813 6.02812 3.80625 5.49375 4.19531C5.80781 4.25156 6.59531 3.38437 7.05469 3.07969C8.10938 2.56875 6.52031 4.00781 7.52344 3.38906C7.18594 3.70313 7.25625 4.20469 7.05 4.34531C6.94687 4.31719 7.45781 4.58906 6.62812 4.79062ZM8.26875 2.63438C8.16094 2.77969 8.01094 3.09375 7.92188 2.90156C7.8 2.9625 7.75313 3.225 7.52344 3.01406C7.65938 2.91563 7.8 2.68125 7.53281 2.82656C7.65469 2.69531 8.74219 2.325 8.68125 2.18437C8.87344 2.0625 8.85469 2.00156 8.63437 2.07656C8.52187 2.03906 8.90156 1.72031 9.40781 1.67812C9.47812 1.67812 9.50625 1.725 9.37969 1.71094C8.61563 1.94531 8.94375 1.87969 9.45938 1.71094C9.2625 1.82344 9.12656 1.85625 9.09375 1.90781C9.60938 1.72031 9.06562 2.04375 9.18281 2.02031C9.0375 2.09531 9.20625 2.11875 8.925 2.22656C8.97656 2.18438 8.46563 2.53125 8.77031 2.42812C8.475 2.70937 8.34375 2.71406 8.26875 2.63438V2.63438ZM8.71875 3.30469C8.72813 2.85469 9.375 2.56875 9.29531 2.54531C10.0922 2.17031 9.01875 2.55938 9.64688 2.22188C9.88125 2.19844 10.3781 1.44844 11.0672 1.40156C11.8266 1.17187 11.475 1.41563 12.0375 1.2L11.925 1.29375C11.8266 1.30781 11.9484 1.48125 11.5922 1.74375C11.5547 2.15156 10.9125 1.96406 11.2313 2.4C11.025 2.10469 10.7156 2.39062 11.1047 2.41875C10.6875 2.7375 9.71719 2.79375 9.25312 3.32344C8.95312 3.75469 8.67656 3.61875 8.71875 3.30469V3.30469ZM12.0516 4.80469C11.7328 5.57344 11.4234 4.69219 11.9859 4.55156C12.1266 4.62656 12.1828 4.65 12.0516 4.80469ZM10.8516 3.26719C10.7578 2.92031 10.8328 3.10313 11.3906 2.93906C11.775 3.21563 11.0484 3.39844 10.8516 3.26719ZM19.5797 17.025C19.1391 16.2656 20.1141 15.5625 20.4422 14.925C20.4 15.6703 20.3063 16.4063 19.5797 17.025ZM21.2391 8.34844C20.7609 8.38594 20.3297 8.49844 19.8984 8.22656C18.9047 7.13906 20.0812 9.45469 20.4094 8.50781C21.5906 8.95781 20.3906 10.8984 19.6453 10.6969C19.2281 9.79687 18.7125 8.80781 17.8031 8.36719C18.5016 9.14062 18.8484 10.0922 19.5984 10.7906C19.65 11.7656 20.6391 10.4344 20.5781 11.1891C20.6719 12.4875 19.1109 13.2656 19.3828 14.5687C19.9641 15.7547 18.2625 15.9703 18.4547 17.0344C17.7703 17.7984 17.0391 18.8297 15.8109 18.6656C15.8109 18.0188 15.4828 17.4703 15.4078 16.8047C14.7422 15.9609 16.1109 15.0562 15.2625 14.175C14.2828 13.9547 15.4641 12.6047 14.4562 12.7313C13.8516 12.1266 12.9656 12.7125 12.0984 12.7172C11.0109 12.8203 9.89063 11.3813 10.3734 10.3641C9.98906 9.30469 11.5922 8.99531 11.6344 8.0625C12.4031 7.42031 13.4953 7.5 14.5359 7.35C14.4609 8.09531 15.2484 8.1 15.8438 8.34844C16.1766 7.54219 17.2125 8.47969 17.9203 7.96875C18.1641 6.77813 17.2313 7.49531 16.6969 7.11563C16.05 6.16875 18.0797 6.62813 17.8688 6.13125C17.0813 6.12656 17.5266 5.16094 16.9688 5.7C17.4703 5.78906 16.8797 6.18281 16.8937 5.73281C16.1344 5.5125 16.8656 6.59531 16.4813 6.69844C15.8953 6.45469 16.1719 6.975 16.2328 7.05469C15.9797 7.60312 15.6703 6.24844 14.9531 6.28594C14.2406 5.63438 14.6719 6.58125 15.2906 6.73594C15.1594 6.77344 15.3656 7.3125 15.2016 7.08281C14.6906 6.37969 13.7203 5.91094 13.1437 6.77344C13.0828 7.57969 11.4422 7.80938 11.7047 6.86719C11.3203 5.89219 12.8953 6.83906 12.75 6.06094C11.7375 5.39063 13.0266 5.60625 13.3688 4.97812C14.1469 5.00156 13.4016 4.34062 13.7672 4.14844C13.7297 4.86563 14.3625 4.72969 14.8641 4.59375C14.7422 4.18125 15.1641 4.19531 14.9062 3.85312C16.0687 3.38906 14.0203 4.06875 14.4328 3.05156C13.9312 2.70469 14.2219 3.81563 14.4328 3.93281C14.4469 4.275 14.1562 4.69688 13.7578 3.97969C13.1766 4.35938 13.2375 3.59531 13.2 3.675C13.1344 3.37969 13.6406 3.36562 13.6453 2.85C13.6031 2.52187 13.6125 2.34844 13.8469 2.32969C13.8656 2.37656 14.8078 2.39062 15.1406 2.77969C14.2313 2.59687 15.0047 2.92969 15.4125 3.11719C14.9766 2.775 15.5859 3.11719 15.2297 2.72813C15.3703 2.75625 14.8406 2.19375 15.3844 2.68594C15.0891 2.33437 15.9609 2.4375 15.4453 2.175C16.2 2.38594 15.7547 2.19375 15.3094 2.00156C14.0813 1.27031 17.4797 2.99062 16.0922 2.22656C16.9781 2.41875 14.1984 1.54219 15.4641 1.92656C14.9812 1.71562 15.45 1.83281 15.8859 1.96875C15.1031 1.725 13.9313 1.27031 13.9781 1.25156C14.25 1.27031 14.5172 1.33125 14.775 1.40625C15.5766 1.64531 14.5453 1.35 14.7656 1.35469C17.5219 2.0625 19.9359 3.90937 21.4031 6.32344C21.7453 6.68437 22.6781 9.07031 22.1906 8.01094C22.4109 8.85469 22.4437 9.76406 22.5609 10.6266C22.3172 10.3547 22.0453 9.35156 21.8109 8.79375C21.7125 9.00938 21.6 8.48906 21.2391 8.34844Z" fill="#BBB7B7"/>
</g>
<defs>
<clipPath id="clip0_1_3022">
<rect width="24" height="24" fill="white"/>
</clipPath>
</defs>
</svg>
