<svg width="24" height="25" viewBox="0 0 24 25" fill="none" xmlns="http://www.w3.org/2000/svg">
<g clip-path="url(#clip0_1_3076)">
<path opacity="0.5" d="M20.4 0H3.6C2.6461 0.00291194 1.73208 0.391524 1.05756 1.08096C0.383048 1.7704 0.00284891 2.70464 0 3.67965V14.5469L4.656 9.78788C5.34204 9.12046 6.25289 8.74823 7.2 8.74823C8.14711 8.74823 9.05796 9.12046 9.744 9.78788L13.1892 13.3289L14.2548 12.2398C14.9311 11.5523 15.8462 11.1664 16.8 11.1664C17.7538 11.1664 18.6689 11.5523 19.3452 12.2398L24 17V3.67965C23.9972 2.70464 23.617 1.7704 22.9424 1.08096C22.2679 0.391524 21.3539 0.00291194 20.4 0Z" fill="#9F9F9F"/>
<path d="M9.74739 9.05396C9.06111 8.37736 8.14995 8 7.20251 8C6.25506 8 5.3439 8.37736 4.65762 9.05396L0 13.8785V20.2697C0.0028499 21.2581 0.383182 22.2052 1.05793 22.9042C1.73268 23.6031 2.64702 23.997 3.60125 24H20.4071C21.3854 24 22.3218 23.5859 23 22.856L9.74739 9.05396Z" fill="#9F9F9F"/>
<path opacity="0.25" d="M24 16.7209L19.2637 12.053C18.5756 11.3786 17.6445 11 16.674 11C15.7035 11 14.7724 11.3786 14.0842 12.053L13 13.1216L22.9695 23C23.6313 22.3321 24.0012 21.4356 24 20.5018V16.7209Z" fill="#9F9F9F"/>
</g>
<g clip-path="url(#clip1_1_3076)">
<path fill-rule="evenodd" clip-rule="evenodd" d="M18 13C18.1326 13 18.2598 13.0527 18.3536 13.1464C18.4473 13.2402 18.5 13.3674 18.5 13.5V18.5H23.5C23.6326 18.5 23.7598 18.5527 23.8536 18.6464C23.9473 18.7402 24 18.8674 24 19C24 19.1326 23.9473 19.2598 23.8536 19.3536C23.7598 19.4473 23.6326 19.5 23.5 19.5H18.5V24.5C18.5 24.6326 18.4473 24.7598 18.3536 24.8536C18.2598 24.9473 18.1326 25 18 25C17.8674 25 17.7402 24.9473 17.6464 24.8536C17.5527 24.7598 17.5 24.6326 17.5 24.5V19.5H12.5C12.3674 19.5 12.2402 19.4473 12.1464 19.3536C12.0527 19.2598 12 19.1326 12 19C12 18.8674 12.0527 18.7402 12.1464 18.6464C12.2402 18.5527 12.3674 18.5 12.5 18.5H17.5V13.5C17.5 13.3674 17.5527 13.2402 17.6464 13.1464C17.7402 13.0527 17.8674 13 18 13V13Z" fill="#00020F"/>
</g>
<defs>
<clipPath id="clip0_1_3076">
<rect width="24" height="24" rx="12" fill="white"/>
</clipPath>
<clipPath id="clip1_1_3076">
<rect width="12" height="12" fill="white" transform="translate(12 13)"/>
</clipPath>
</defs>
</svg>
