<svg width="40" height="40" viewBox="0 0 40 40" fill="none" xmlns="http://www.w3.org/2000/svg">
<path fill-rule="evenodd" clip-rule="evenodd" d="M20.0333 5C16.2691 5 12.8391 6.24333 10.81 7.25917C10.6266 7.35083 10.4558 7.44083 10.2966 7.5275C9.98164 7.69917 9.71331 7.85917 9.49997 8L11.8083 11.3983L12.895 11.8308C17.1416 13.9733 22.8366 13.9733 27.0841 11.8308L28.3175 11.1908L30.5008 8C30.0485 7.70499 29.5781 7.43864 29.0925 7.2025C27.0741 6.1975 23.7266 5 20.0333 5ZM14.6641 8.84667C13.8467 8.69371 13.0394 8.49111 12.2466 8.24C14.1475 7.39583 16.9808 6.5 20.0325 6.5C22.1466 6.5 24.1458 6.93 25.7991 7.475C23.8616 7.7475 21.7941 8.21 19.8241 8.77917C18.2741 9.2275 16.4625 9.17917 14.6641 8.84667ZM27.9641 13.0667L27.76 13.17C23.0875 15.5267 16.8908 15.5267 12.2183 13.17L12.025 13.0717C5.00664 20.7725 -0.351691 34.9975 20.0333 34.9975C40.4166 34.9975 34.9275 20.5067 27.9641 13.0667Z" fill="white"/>
<path d="M17.5 18C17.0391 18 16.6667 18.3511 16.6667 18.7857V23.5H15.8333C15.3724 23.5 15 23.8511 15 24.2857C15 24.7203 15.3724 25.0714 15.8333 25.0714H16.6667V25.8571H15.8333C15.3724 25.8571 15 26.2083 15 26.6429C15 27.0775 15.3724 27.4286 15.8333 27.4286H16.6667V28.2143C16.6667 28.6489 17.0391 29 17.5 29C17.9609 29 18.3333 28.6489 18.3333 28.2143V27.4286H22.5C22.9609 27.4286 23.3333 27.0775 23.3333 26.6429C23.3333 26.2083 22.9609 25.8571 22.5 25.8571H18.3333V25.0714H21.25C23.3203 25.0714 25 23.4877 25 21.5357C25 19.5837 23.3203 18 21.25 18H17.5ZM21.25 23.5H18.3333V19.5714H21.25C22.401 19.5714 23.3333 20.4504 23.3333 21.5357C23.3333 22.621 22.401 23.5 21.25 23.5Z" fill="#C72A2A"/>
</svg>
