<svg width="38" height="38" viewBox="0 0 38 38" fill="none" xmlns="http://www.w3.org/2000/svg">
<path d="M26.5 24V17.75C26.5 13.9125 24.45 10.7 20.875 9.85V9C20.875 7.9625 20.025 7.125 18.9875 7.125C17.95 7.125 17.125 7.9625 17.125 9V9.85C13.5375 10.7 11.5 13.9 11.5 17.75V24L9.87497 25.6125C9.08747 26.4 9.63747 27.75 10.75 27.75H27.2125C28.325 27.75 28.8875 26.4 28.1 25.6125L26.5 24ZM18.9875 31.5C20.3625 31.5 21.4875 30.375 21.4875 29H16.4875C16.4875 29.663 16.7509 30.2989 17.2197 30.7678C17.6885 31.2366 18.3244 31.5 18.9875 31.5ZM12.4625 9.9125C12.9875 9.4375 13 8.625 12.5 8.125C12.2701 7.89632 11.9605 7.76588 11.6363 7.76121C11.3121 7.75655 10.9988 7.87802 10.7625 8.1C8.58124 10.0891 7.14006 12.7599 6.67497 15.675C6.56247 16.4375 7.14997 17.125 7.92497 17.125C8.52497 17.125 9.04997 16.6875 9.14997 16.0875C9.51834 13.7119 10.687 11.5333 12.4625 9.9125ZM27.25 8.1C26.75 7.6375 25.975 7.65 25.5 8.125C25 8.625 25.025 9.425 25.5375 9.9C27.2625 11.4875 28.475 13.65 28.85 16.075C28.9375 16.675 29.4625 17.1125 30.075 17.1125C30.8375 17.1125 31.4375 16.425 31.3125 15.6625C30.8375 12.7 29.375 10.0625 27.25 8.1Z" fill="white"/>
</svg>
