<svg width="23" height="23" viewBox="0 0 23 23" fill="none" xmlns="http://www.w3.org/2000/svg">
<g clip-path="url(#clip0_1_2845)">
<path d="M11.5 0C8.45001 0 5.52494 1.2116 3.36827 3.36827C1.2116 5.52494 0 8.45001 0 11.5C0 14.55 1.2116 17.4751 3.36827 19.6317C5.52494 21.7884 8.45001 23 11.5 23C14.55 23 17.4751 21.7884 19.6317 19.6317C21.7884 17.4751 23 14.55 23 11.5C23 8.45001 21.7884 5.52494 19.6317 3.36827C17.4751 1.2116 14.55 0 11.5 0V0ZM4.6 9.2H18.4V13.8H4.6V9.2Z" fill="#700000"/>
</g>
<defs>
<clipPath id="clip0_1_2845">
<rect width="23" height="23" fill="white"/>
</clipPath>
</defs>
</svg>
