<svg width="30" height="30" viewBox="0 0 30 30" fill="none" xmlns="http://www.w3.org/2000/svg">
<path d="M15 7.68758C16.2238 7.68758 17.4201 8.05047 18.4376 8.73036C19.4551 9.41025 20.2482 10.3766 20.7165 11.5072C21.1848 12.6378 21.3073 13.8819 21.0686 15.0822C20.8299 16.2825 20.2406 17.385 19.3752 18.2503C18.5099 19.1156 17.4074 19.7049 16.2071 19.9437C15.0069 20.1824 13.7628 20.0599 12.6321 19.5916C11.5015 19.1233 10.5352 18.3302 9.85528 17.3127C9.17538 16.2951 8.81249 15.0989 8.81249 13.8751C8.81249 12.2341 9.46439 10.6602 10.6248 9.49986C11.7852 8.33948 13.359 7.68758 15 7.68758ZM21.75 6.00008H24V8.25008C24 8.54845 24.1185 8.8346 24.3295 9.04558C24.5405 9.25655 24.8266 9.37508 25.125 9.37508C25.4234 9.37508 25.7095 9.25655 25.9205 9.04558C26.1315 8.8346 26.25 8.54845 26.25 8.25008V6.00008H28.5C28.7984 6.00008 29.0845 5.88156 29.2955 5.67058C29.5065 5.4596 29.625 5.17345 29.625 4.87508C29.625 4.57671 29.5065 4.29057 29.2955 4.07959C29.0845 3.86861 28.7984 3.75008 28.5 3.75008H26.25V1.50008C26.25 1.20171 26.1315 0.915565 25.9205 0.704587C25.7095 0.493608 25.4234 0.375082 25.125 0.375082C24.8266 0.375082 24.5405 0.493608 24.3295 0.704587C24.1185 0.915565 24 1.20171 24 1.50008V3.75008H21.75C21.4516 3.75008 21.1655 3.86861 20.9545 4.07959C20.7435 4.29057 20.625 4.57671 20.625 4.87508C20.625 5.17345 20.7435 5.4596 20.9545 5.67058C21.1655 5.88156 21.4516 6.00008 21.75 6.00008ZM28.1625 11.7657C28.0159 11.7862 27.8748 11.8359 27.7477 11.9117C27.6205 11.9875 27.5098 12.088 27.422 12.2072C27.3343 12.3264 27.2712 12.462 27.2366 12.6059C27.2019 12.7499 27.1964 12.8993 27.2203 13.0454C27.3212 13.6921 27.373 14.3455 27.375 15.0001C27.3791 18.0282 26.2678 20.9518 24.2531 23.2126C23.3425 21.9063 22.169 20.8046 20.8078 19.9782C19.245 21.4755 17.1643 22.3113 15 22.3113C12.8357 22.3113 10.755 21.4755 9.19218 19.9782C7.83103 20.8046 6.65753 21.9063 5.74687 23.2126C4.16457 21.429 3.13121 19.2263 2.77105 16.8694C2.41089 14.5125 2.73928 12.1017 3.71672 9.92695C4.69415 7.75223 6.27902 5.90617 8.28072 4.61079C10.2824 3.31541 12.6157 2.62586 15 2.62508C15.6545 2.62712 16.308 2.67883 16.9547 2.77977C17.2463 2.81973 17.5419 2.74382 17.7782 2.56833C18.0145 2.39283 18.1726 2.13172 18.2186 1.84101C18.2646 1.55029 18.1948 1.25313 18.0243 1.01326C17.8537 0.773386 17.5959 0.609909 17.3062 0.557894C16.5438 0.433591 15.7725 0.372445 15 0.375082C12.0531 0.376105 9.17524 1.26735 6.74356 2.93202C4.31187 4.5967 2.4398 6.95714 1.37266 9.70404C0.305523 12.4509 0.0930997 15.4561 0.763229 18.3258C1.43336 21.1955 2.95478 23.7958 5.12812 25.786L5.31093 25.9548C7.98457 28.3194 11.4307 29.6247 15 29.6247C18.5693 29.6247 22.0154 28.3194 24.6891 25.9548L24.8719 25.786C26.3711 24.4179 27.5683 22.752 28.3867 20.8947C29.2052 19.0374 29.6269 17.0297 29.625 15.0001C29.6276 14.2276 29.5665 13.4562 29.4422 12.6938C29.42 12.5485 29.3691 12.409 29.2925 12.2834C29.216 12.1579 29.1153 12.0487 28.9962 11.9624C28.8772 11.8761 28.7422 11.8142 28.5991 11.7805C28.456 11.7467 28.3076 11.7417 28.1625 11.7657Z" fill="white"/>
</svg>
