<svg width="22" height="22" viewBox="0 0 22 22" fill="none" xmlns="http://www.w3.org/2000/svg">
<path d="M22 11C22 8.08262 20.8411 5.28473 18.7782 3.22183C16.7153 1.15893 13.9174 0 11 0C8.08262 0 5.28473 1.15893 3.22183 3.22183C1.15893 5.28473 0 8.08262 0 11C0 13.9174 1.15893 16.7153 3.22183 18.7782C5.28473 20.8411 8.08262 22 11 22C13.9174 22 16.7153 20.8411 18.7782 18.7782C20.8411 16.7153 22 13.9174 22 11ZM11.6875 15.8125C11.6875 15.9948 11.6151 16.1697 11.4861 16.2986C11.3572 16.4276 11.1823 16.5 11 16.5C10.8177 16.5 10.6428 16.4276 10.5139 16.2986C10.3849 16.1697 10.3125 15.9948 10.3125 15.8125V7.84712L7.36175 10.7992C7.23266 10.9283 7.05757 11.0009 6.875 11.0009C6.69243 11.0009 6.51734 10.9283 6.38825 10.7992C6.25916 10.6702 6.18663 10.4951 6.18663 10.3125C6.18663 10.1299 6.25916 9.95484 6.38825 9.82575L10.5133 5.70075C10.5771 5.63673 10.653 5.58593 10.7365 5.55127C10.82 5.51661 10.9096 5.49877 11 5.49877C11.0904 5.49877 11.18 5.51661 11.2635 5.55127C11.347 5.58593 11.4229 5.63673 11.4867 5.70075L15.6117 9.82575C15.7408 9.95484 15.8134 10.1299 15.8134 10.3125C15.8134 10.4951 15.7408 10.6702 15.6117 10.7992C15.4827 10.9283 15.3076 11.0009 15.125 11.0009C14.9424 11.0009 14.7673 10.9283 14.6383 10.7992L11.6875 7.84712V15.8125Z" fill="white"/>
</svg>
