<svg width="25" height="27" viewBox="0 0 25 27" fill="none" xmlns="http://www.w3.org/2000/svg">
<path d="M13.2828 2.46492C13.2828 2.24702 13.2005 2.03804 13.054 1.88395C12.9075 1.72987 12.7088 1.64331 12.5016 1.64331C12.2944 1.64331 12.0956 1.72987 11.9491 1.88395C11.8026 2.03804 11.7203 2.24702 11.7203 2.46492V3.28653H10.1562C9.53465 3.28653 8.93851 3.54622 8.49897 4.00847C8.05943 4.47071 7.8125 5.09765 7.8125 5.75137V6.57955C8.6413 6.57955 9.43616 6.9258 10.0222 7.54213C10.6083 8.15846 10.9375 8.99438 10.9375 9.866V23.0052H14.0625V12.3308C14.0623 11.3838 14.3733 10.4658 14.9427 9.73215C15.5122 8.99852 16.3052 8.49434 17.1875 8.30494V5.75137C17.1875 5.09765 16.9406 4.47071 16.501 4.00847C16.0615 3.54622 15.4654 3.28653 14.8438 3.28653H13.2828V2.46492ZM19.5312 23.0052H15.625V12.3308C15.625 11.6771 15.8719 11.0502 16.3115 10.5879C16.751 10.1257 17.3471 9.866 17.9688 9.866H19.5312V9.85942C20.1529 9.85942 20.749 10.1191 21.1885 10.5814C21.6281 11.0436 21.875 11.6705 21.875 12.3243V20.5404C21.875 21.1941 21.6281 21.821 21.1885 22.2833C20.749 22.7455 20.1529 23.0052 19.5312 23.0052V23.0052ZM7.56719 8.43804C7.74417 8.31737 7.94885 8.24917 8.15962 8.24063C8.37039 8.2321 8.57944 8.28356 8.76472 8.38956C8.95 8.49557 9.10464 8.65221 9.21233 8.84294C9.32002 9.03368 9.37676 9.25144 9.37656 9.47327L9.375 22.1836C9.375 22.4015 9.29269 22.6105 9.14618 22.7646C8.99966 22.9186 8.80095 23.0052 8.59375 23.0052H5.46875C4.84715 23.0052 4.25101 22.7455 3.81147 22.2833C3.37193 21.821 3.125 21.1941 3.125 20.5404V12.8057C3.12516 12.3948 3.22303 11.9904 3.40968 11.6294C3.59634 11.2683 3.86587 10.9621 4.19375 10.7385L7.56875 8.43804H7.56719Z" fill="#BBB7B7"/>
</svg>
