<svg width="40" height="40" viewBox="0 0 40 40" fill="none" xmlns="http://www.w3.org/2000/svg">
<path d="M10 6C8.93913 6 7.92172 6.42143 7.17157 7.17157C6.42143 7.92172 6 8.93913 6 10V14C6 15.0609 6.42143 16.0783 7.17157 16.8284C7.92172 17.5786 8.93913 18 10 18H14C15.0609 18 16.0783 17.5786 16.8284 16.8284C17.5786 16.0783 18 15.0609 18 14V10C18 8.93913 17.5786 7.92172 16.8284 7.17157C16.0783 6.42143 15.0609 6 14 6H10ZM10 22C8.93913 22 7.92172 22.4214 7.17157 23.1716C6.42143 23.9217 6 24.9391 6 26V30C6 31.0609 6.42143 32.0783 7.17157 32.8284C7.92172 33.5786 8.93913 34 10 34H14C15.0609 34 16.0783 33.5786 16.8284 32.8284C17.5786 32.0783 18 31.0609 18 30V26C18 24.9391 17.5786 23.9217 16.8284 23.1716C16.0783 22.4214 15.0609 22 14 22H10ZM22 10C22 8.93913 22.4214 7.92172 23.1716 7.17157C23.9217 6.42143 24.9391 6 26 6H30C31.0609 6 32.0783 6.42143 32.8284 7.17157C33.5786 7.92172 34 8.93913 34 10V14C34 15.0609 33.5786 16.0783 32.8284 16.8284C32.0783 17.5786 31.0609 18 30 18H26C24.9391 18 23.9217 17.5786 23.1716 16.8284C22.4214 16.0783 22 15.0609 22 14V10ZM28 22C28.5304 22 29.0391 22.2107 29.4142 22.5858C29.7893 22.9609 30 23.4696 30 24V26H32C32.5304 26 33.0391 26.2107 33.4142 26.5858C33.7893 26.9609 34 27.4696 34 28C34 28.5304 33.7893 29.0391 33.4142 29.4142C33.0391 29.7893 32.5304 30 32 30H30V32C30 32.5304 29.7893 33.0391 29.4142 33.4142C29.0391 33.7893 28.5304 34 28 34C27.4696 34 26.9609 33.7893 26.5858 33.4142C26.2107 33.0391 26 32.5304 26 32V30H24C23.4696 30 22.9609 29.7893 22.5858 29.4142C22.2107 29.0391 22 28.5304 22 28C22 27.4696 22.2107 26.9609 22.5858 26.5858C22.9609 26.2107 23.4696 26 24 26H26V24C26 23.4696 26.2107 22.9609 26.5858 22.5858C26.9609 22.2107 27.4696 22 28 22V22Z" fill="white"/>
</svg>
