<svg width="32" height="32" viewBox="0 0 32 32" fill="none" xmlns="http://www.w3.org/2000/svg">
<g clip-path="url(#clip0_20_3587)">
<path d="M16 30.471C16.56 30.4581 17.0973 30.2476 17.517 29.8767C17.9367 29.5058 18.2117 28.9984 18.2934 28.4443H13.6178C13.7018 29.0135 13.9896 29.5328 14.4278 29.9056C14.866 30.2784 15.4248 30.4793 16 30.471Z" fill="white"/>
<path d="M29.1999 25.0045L28.8977 24.7379C28.0403 23.974 27.2899 23.0979 26.6666 22.1334C25.9859 20.8024 25.5779 19.3488 25.4666 17.8579V13.4668C25.463 12.9334 25.4154 12.4012 25.3244 11.8757C23.8187 11.5662 22.4662 10.7459 21.496 9.55369C20.5257 8.36147 19.9972 6.87059 19.9999 5.33344V4.77344C19.0719 4.31672 18.0748 4.01638 17.0488 3.88455V2.76455C17.0488 2.44982 16.9238 2.14799 16.7013 1.92545C16.4787 1.7029 16.1769 1.57788 15.8622 1.57788C15.5474 1.57788 15.2456 1.7029 15.0231 1.92545C14.8005 2.14799 14.6755 2.44982 14.6755 2.76455V3.92899C12.3784 4.25304 10.276 5.39721 8.75659 7.15027C7.23716 8.90332 6.40326 11.1469 6.40884 13.4668V17.8579C6.29751 19.3488 5.88953 20.8024 5.20884 22.1334C4.59629 23.0955 3.8579 23.9714 3.01328 24.7379L2.71106 25.0045V27.5112H29.1999V25.0045Z" fill="white"/>
<path d="M26.6666 9.77781C29.1212 9.77781 31.1111 7.78796 31.1111 5.33336C31.1111 2.87876 29.1212 0.888916 26.6666 0.888916C24.212 0.888916 22.2222 2.87876 22.2222 5.33336C22.2222 7.78796 24.212 9.77781 26.6666 9.77781Z" fill="white"/>
</g>
<defs>
<clipPath id="clip0_20_3587">
<rect width="32" height="32" fill="white"/>
</clipPath>
</defs>
</svg>
