<svg width="40" height="40" viewBox="0 0 40 40" fill="none" xmlns="http://www.w3.org/2000/svg">
<path d="M20 18.3333C21.3186 18.3333 22.6075 17.9423 23.7038 17.2098C24.8002 16.4773 25.6547 15.4361 26.1592 14.2179C26.6638 12.9997 26.7958 11.6593 26.5386 10.3661C26.2814 9.07286 25.6464 7.88497 24.7141 6.95262C23.7817 6.02027 22.5939 5.38534 21.3006 5.1281C20.0074 4.87087 18.667 5.00289 17.4488 5.50747C16.2306 6.01206 15.1895 6.86654 14.4569 7.96287C13.7244 9.0592 13.3334 10.3481 13.3334 11.6667C13.3334 13.4348 14.0358 15.1305 15.286 16.3807C16.5362 17.631 18.2319 18.3333 20 18.3333ZM30 35C30.4421 35 30.866 34.8244 31.1786 34.5118C31.4911 34.1993 31.6667 33.7754 31.6667 33.3333C31.6667 30.2391 30.4375 27.2717 28.2496 25.0838C26.0617 22.8958 23.0942 21.6667 20 21.6667C16.9058 21.6667 13.9384 22.8958 11.7505 25.0838C9.56254 27.2717 8.33337 30.2391 8.33337 33.3333C8.33337 33.7754 8.50897 34.1993 8.82153 34.5118C9.13409 34.8244 9.55801 35 10 35H30Z" fill="white"/>
</svg>
