<svg width="33" height="33" viewBox="0 0 33 33" fill="none" xmlns="http://www.w3.org/2000/svg">
<path d="M26.5155 13.2H24.75V8.25C24.75 8.25 24.75 0 16.5 0C8.25005 0 8.25005 8.25 8.25005 8.25V13.2H6.48455C5.63997 13.2 4.82998 13.5355 4.23277 14.1327C3.63556 14.7299 3.30005 15.5399 3.30005 16.3845V29.832C3.30441 30.6737 3.64184 31.4795 4.23858 32.0731C4.83532 32.6668 5.64282 33 6.48455 33H26.5155C27.3601 33 28.1701 32.6645 28.7673 32.0673C29.3645 31.4701 29.7 30.6601 29.7 29.8155V16.3845C29.7 15.5399 29.3645 14.7299 28.7673 14.1327C28.1701 13.5355 27.3601 13.2 26.5155 13.2ZM11.55 9.075C11.55 6.6 11.55 3.3 16.5 3.3C21.45 3.3 21.45 6.6 21.45 9.075V13.2H11.55V9.075ZM16.5 26.4C15.8474 26.4 15.2093 26.2065 14.6667 25.8438C14.124 25.4812 13.701 24.9659 13.4512 24.3629C13.2015 23.7599 13.1361 23.0963 13.2635 22.4562C13.3908 21.8161 13.7051 21.2281 14.1666 20.7665C14.6281 20.305 15.2161 19.9907 15.8563 19.8634C16.4964 19.7361 17.1599 19.8014 17.7629 20.0512C18.3659 20.301 18.8813 20.7239 19.2439 21.2666C19.6065 21.8093 19.8 22.4473 19.8 23.1C19.8 23.9752 19.4524 24.8146 18.8335 25.4335C18.2146 26.0523 17.3753 26.4 16.5 26.4Z" fill="white"/>
</svg>
