<svg width="30" height="30" viewBox="0 0 30 30" fill="none" xmlns="http://www.w3.org/2000/svg">
<path d="M17.2752 27.5H12.7252C12.4401 27.5 12.1636 27.4026 11.9415 27.2239C11.7193 27.0452 11.565 26.796 11.504 26.5175L10.9952 24.1625C10.3165 23.8651 9.67301 23.4933 9.07647 23.0538L6.78022 23.785C6.50843 23.8717 6.21516 23.8628 5.94912 23.7598C5.68308 23.6568 5.46029 23.4659 5.31772 23.2188L3.03772 19.28C2.89665 19.0327 2.8437 18.7448 2.88752 18.4634C2.93135 18.1821 3.06936 17.924 3.27897 17.7313L5.06022 16.1063C4.97922 15.3701 4.97922 14.6274 5.06022 13.8913L3.27897 12.27C3.06906 12.0772 2.93086 11.8188 2.88703 11.5372C2.8432 11.2556 2.89633 10.9675 3.03772 10.72L5.31272 6.77875C5.45529 6.53164 5.67809 6.34074 5.94412 6.23773C6.21016 6.13473 6.50343 6.12583 6.77522 6.2125L9.07147 6.94375C9.37647 6.71875 9.69397 6.50875 10.0215 6.31875C10.3377 6.14125 10.6627 5.98 10.9952 5.83625L11.5052 3.48375C11.5659 3.20525 11.72 2.95586 11.9419 2.77694C12.1638 2.59801 12.4402 2.5003 12.7252 2.5H17.2752C17.5603 2.5003 17.8366 2.59801 18.0585 2.77694C18.2804 2.95586 18.4345 3.20525 18.4952 3.48375L19.0102 5.8375C19.3602 5.9925 19.7027 6.16625 20.034 6.36C20.3427 6.53875 20.6415 6.735 20.929 6.94625L23.2265 6.215C23.4981 6.12865 23.7911 6.13771 24.0569 6.2407C24.3226 6.34369 24.5452 6.53441 24.6877 6.78125L26.9627 10.7225C27.2527 11.2313 27.1527 11.875 26.7215 12.2713L24.9402 13.8963C25.0212 14.6324 25.0212 15.3751 24.9402 16.1113L26.7215 17.7363C27.1527 18.1338 27.2527 18.7763 26.9627 19.285L24.6877 23.2263C24.5452 23.4734 24.3224 23.6643 24.0563 23.7673C23.7903 23.8703 23.497 23.8792 23.2252 23.7925L20.929 23.0613C20.3329 23.5004 19.6898 23.8719 19.0115 24.1688L18.4952 26.5175C18.4343 26.7958 18.2801 27.0449 18.0582 27.2236C17.8363 27.4022 17.5601 27.4998 17.2752 27.5ZM14.9952 10C13.6691 10 12.3974 10.5268 11.4597 11.4645C10.522 12.4021 9.99522 13.6739 9.99522 15C9.99522 16.3261 10.522 17.5979 11.4597 18.5355C12.3974 19.4732 13.6691 20 14.9952 20C16.3213 20 17.5931 19.4732 18.5308 18.5355C19.4684 17.5979 19.9952 16.3261 19.9952 15C19.9952 13.6739 19.4684 12.4021 18.5308 11.4645C17.5931 10.5268 16.3213 10 14.9952 10Z" fill="white"/>
</svg>
